<?xml version="1.0" encoding="iso-8859-1"?>
<!-- Generator: Adobe Illustrator 19.1.0, SVG Export Plug-In . SVG Version: 6.00 Build 0)  -->
<svg version="1.1" xmlns="http://www.w3.org/2000/svg" xmlns:xlink="http://www.w3.org/1999/xlink" x="0px" y="0px"
	 viewBox="0 0 60 60" style="enable-background:new 0 0 60 60;" xml:space="preserve">
<g id="Layer_1">
	<g>
		<g>
			<path style="fill:#404dff;" d="M30.148,47.477l-0.703-0.703c4.507-4.507,4.507-11.845-0.001-16.353l0.704-0.704
				C35.043,34.612,35.044,42.581,30.148,47.477z"/>
		</g>
		<g>
			<path style="fill:#68D36D;" d="M30.697,30.333l-0.704,0.704c-0.595-0.595-5.719,2.209-12.987,9.477L16.3,39.809
				C20.429,35.68,28.75,28.386,30.697,30.333z"/>
		</g>
		<g>
			<path style="fill:#ff293e;" d="M30.148,29.717l-0.704,0.704c-7.789-7.789-20.468-7.792-28.259,0l-0.705-0.705
				C8.659,21.536,21.968,21.536,30.148,29.717z"/>
		</g>
		<g>
			<path style="fill:#404dff;" d="M30.148,29.717l-0.704,0.704c-4.751-4.751-4.751-12.478,0-17.229l0.703,0.703
				C25.786,18.256,25.787,25.355,30.148,29.717z"/>
		</g>
		<g>
			<path style="fill:#68D36D;" d="M53.67,13.938C43.555,24.053,31.985,32.962,29.444,30.421l0.704-0.704
				c1.322,1.322,10.644-4.309,22.818-16.483L53.67,13.938z"/>
		</g>
		<g>
			<path style="fill:#ff293e;" d="M59.521,31.677c-7.6,7.6-19.962,7.601-27.563,0.001l0.705-0.705
				c7.21,7.21,18.941,7.21,26.152-0.001L59.521,31.677z"/>
		</g>
		<g>
			<path style="fill:#2C3E50;" d="M 10 10 L 100 100 Z"/>
		</g>
	</g>
</g>
<g id="Upload-1">
</g>
<g id="Upload-2" style="display:none;">
</g>
</svg>
