<?xml version="1.0" encoding="iso-8859-1"?>
<!-- Generator: Adobe Illustrator 19.1.0, SVG Export Plug-In . SVG Version: 6.00 Build 0)  -->
<svg version="1.1" xmlns="http://www.w3.org/2000/svg" xmlns:xlink="http://www.w3.org/1999/xlink" x="0px" y="0px"
	 viewBox="0 0 60 60" style="enable-background:new 0 0 60 60;" xml:space="preserve">
<g id="Layer_1">
	<g>
		<g>
			<path style="fill:#404dff;" d="M30.148,47.805l-0.703-0.703c4.507-4.507,4.507-11.845-0.001-16.353l0.704-0.704
				C35.043,34.94,35.044,42.909,30.148,47.805z"/>
		</g>
		<g>
			<path style="fill:#404dff;" d="M30.697,30.661l-0.704,0.704c-0.595-0.595-5.719,2.209-12.987,9.477L16.3,40.137
				C20.429,36.008,28.75,28.714,30.697,30.661z"/>
		</g>
		<g>
			<path style="fill:#68D36D;" d="M30.148,30.045l-0.704,0.704c-7.789-7.789-20.468-7.792-28.259,0l-0.705-0.705
				C8.659,21.864,21.968,21.864,30.148,30.045z"/>
		</g>
		<g>
			<path style="fill:#404dff;" d="M30.148,30.045l-0.704,0.704c-4.751-4.751-4.751-12.478,0-17.229l0.703,0.703
				C25.786,18.584,25.787,25.684,30.148,30.045z"/>
		</g>
		<g>
			<path style="fill:#404dff;" d="M53.67,14.266C43.555,24.381,31.985,33.29,29.444,30.749l0.704-0.704
				c1.322,1.322,10.644-4.309,22.818-16.483L53.67,14.266z"/>
		</g>
		<g>
			<path style="fill:#68D36D;" d="M59.521,32.005c-7.6,7.6-19.962,7.601-27.563,0.001l0.705-0.705
				c7.21,7.21,18.941,7.21,26.152-0.001L59.521,32.005z"/>
		</g>
	</g>
</g>
<g id="Upload-1">
</g>
<g id="Upload-2" style="display:none;">
</g>
</svg>
