<svg height="512pt" viewBox="0 -25 512 512" width="512pt" xmlns="http://www.w3.org/2000/svg"><path d="m256.371094 230.496094c0 56.679687-45.800782 102.789062-102.109375 102.789062-56.300781 0-102.101563-46.109375-102.101563-102.789062 0-56.667969 45.800782-102.777344 102.101563-102.777344 56.308593 0 102.109375 46.109375 102.109375 102.777344zm0 0" fill="#ffd60d"/><path d="m256.371094 230.496094c0 56.679687-45.800782 102.789062-102.109375 102.789062-56.300781 0-102.101563-46.109375-102.101563-102.789062zm0 0" fill="#ffbb10"/><path d="m460.578125 230.496094v.011718c-.007813 56.679688-45.796875 102.777344-102.097656 102.777344s-102.101563-46.097656-102.109375-102.777344v-.011718c0-56.667969 45.808594-102.777344 102.109375-102.777344s102.097656 46.109375 102.097656 102.777344zm0 0" fill="#667cff"/><path d="m460.578125 230.507812c-.007813 56.679688-45.796875 102.777344-102.097656 102.777344s-102.101563-46.097656-102.109375-102.777344zm0 0" fill="#5a39ff"/><path d="m193.96875 230.296875v.398437c-.058594 5.5625-2.449219 10.863282-6.589844 14.582032l-34.660156 31.121094c-2.867188 2.570312-6.449219 3.828124-10.019531 3.828124-4.109375 0-8.199219-1.679687-11.167969-4.96875-5.53125-6.171874-5.019531-15.652343 1.148438-21.191406l9.539062-8.570312h-127.21875c-8.28125 0-15-6.710938-15-15 0-8.277344 6.71875-15 15-15h127.21875l-9.539062-8.570313c-6.167969-5.527343-6.679688-15.019531-1.148438-21.179687 5.539062-6.160156 15.019531-6.679688 21.1875-1.140625l34.660156 31.121093c4.140625 3.710938 6.53125 9.011719 6.589844 14.570313zm0 0" fill="#ff7c10"/><path d="m512 230.496094c0 8.289062-6.710938 15-15 15h-125.210938l9.539063 8.570312c6.171875 5.539063 6.683594 15.019532 1.140625 21.191406-2.957031 3.289063-7.046875 4.96875-11.160156 4.96875-3.570313.011719-7.148438-1.257812-10.019532-3.828124l-34.660156-31.121094c-4.140625-3.71875-6.527344-9.019532-6.589844-14.582032v-.398437c.0625-5.558594 2.449219-10.859375 6.589844-14.570313l34.660156-31.121093c6.160157-5.527344 15.652344-5.027344 21.179688 1.140625 5.542969 6.160156 5.03125 15.652344-1.140625 21.179687l-9.539063 8.570313h125.210938c8.289062 0 15 6.722656 15 15zm0 0" fill="#ffd60d"/><g fill="#05dbdb"><path d="m286.761719 402.988281h-83.5c-8.285157 0-15 6.714844-15 15 0 8.285157 6.714843 15 15 15h83.5c8.285156 0 15-6.714843 15-15 0-8.285156-6.714844-15-15-15zm0 0"/><path d="m153.535156 402.988281h-23.398437c-8.28125 0-15 6.714844-15 15 0 8.285157 6.71875 15 15 15h23.398437c8.285156 0 15-6.714843 15-15 0-8.285156-6.714844-15-15-15zm0 0"/><path d="m221.515625 382.972656c8.285156 0 15-6.71875 15-15 0-8.285156-6.714844-15-15-15h-206.511719c-8.285156 0-14.99999975 6.714844-14.99999975 15 0 8.28125 6.71484375 15 14.99999975 15zm0 0"/><path d="m45.355469 432h-23.398438c-8.285156 0-15 6.714844-15 15s6.714844 15 15 15h23.398438c8.285156 0 15-6.714844 15-15s-6.714844-15-15-15zm0 0"/></g><path d="m224.945312 59.011719h158.5c8.285157 0 15-6.714844 15-15 0-8.285157-6.714843-15-15-15h-158.5c-8.285156 0-15 6.714843-15 15 0 8.285156 6.714844 15 15 15zm0 0" fill="#36f1ff"/><path d="m496.699219 79.027344h-126.511719c-8.285156 0-15 6.71875-15 15 0 8.285156 6.714844 15 15 15h126.511719c8.285156 0 15-6.714844 15-15 0-8.28125-6.714844-15-15-15zm0 0" fill="#36f1ff"/><path d="m320.464844 79.027344h-23.398438c-8.285156 0-15 6.71875-15 15 0 8.285156 6.714844 15 15 15h23.398438c8.285156 0 15-6.714844 15-15 0-8.28125-6.714844-15-15-15zm0 0" fill="#36f1ff"/><path d="m466.351562 30h23.398438c8.28125 0 15-6.714844 15-15s-6.71875-15-15-15h-23.398438c-8.285156 0-15 6.714844-15 15s6.714844 15 15 15zm0 0" fill="#36f1ff"/><path d="m0 230.496094h193.96875v.199218c-.058594 5.5625-2.449219 10.863282-6.589844 14.582032l-34.660156 31.121094c-2.867188 2.570312-6.449219 3.828124-10.019531 3.828124-4.109375 0-8.199219-1.679687-11.167969-4.96875-5.53125-6.171874-5.019531-15.652343 1.148438-21.191406l9.539062-8.570312h-127.21875c-8.28125 0-15-6.710938-15-15zm0 0" fill="#ff4412"/><path d="m512 230.496094c0 8.289062-6.710938 15-15 15h-125.210938l9.539063 8.570312c6.171875 5.539063 6.683594 15.019532 1.140625 21.191406-2.957031 3.289063-7.046875 4.96875-11.160156 4.96875-3.570313.011719-7.148438-1.257812-10.019532-3.828124l-34.660156-31.121094c-4.140625-3.71875-6.527344-9.019532-6.589844-14.582032v-.199218zm0 0" fill="#ffbb10"/></svg>